<mxfile host="app.diagrams.net" modified="2021-11-04T20:57:00.470Z" agent="5.0 (X11; Linux x86_64) AppleWebKit/537.36 (KHTML, like Gecko) Chrome/95.0.4638.69 Safari/537.36" etag="_7DRk_fmkm-ou5ziW_Yk" version="15.5.9" type="github">
  <diagram id="jeEMhvb7AtyVDfbIF8lK" name="Page-1">
    <mxGraphModel dx="1702" dy="1553" grid="1" gridSize="10" guides="1" tooltips="1" connect="1" arrows="1" fold="1" page="1" pageScale="1" pageWidth="827" pageHeight="1169" math="0" shadow="0">
      <root>
        <mxCell id="0" />
        <mxCell id="1" parent="0" />
        <mxCell id="Vxgs7BSpl1iZjyIjUuE6-1" value="Docente" style="swimlane;fontStyle=1;align=center;verticalAlign=top;childLayout=stackLayout;horizontal=1;startSize=26;horizontalStack=0;resizeParent=1;resizeParentMax=0;resizeLast=0;collapsible=1;marginBottom=0;" vertex="1" parent="1">
          <mxGeometry x="550" y="40" width="160" height="60" as="geometry" />
        </mxCell>
        <mxCell id="Vxgs7BSpl1iZjyIjUuE6-2" value="Nombre : String&#xa;" style="text;strokeColor=none;fillColor=none;align=left;verticalAlign=top;spacingLeft=4;spacingRight=4;overflow=hidden;rotatable=0;points=[[0,0.5],[1,0.5]];portConstraint=eastwest;" vertex="1" parent="Vxgs7BSpl1iZjyIjUuE6-1">
          <mxGeometry y="26" width="160" height="26" as="geometry" />
        </mxCell>
        <mxCell id="Vxgs7BSpl1iZjyIjUuE6-3" value="" style="line;strokeWidth=1;fillColor=none;align=left;verticalAlign=middle;spacingTop=-1;spacingLeft=3;spacingRight=3;rotatable=0;labelPosition=right;points=[];portConstraint=eastwest;" vertex="1" parent="Vxgs7BSpl1iZjyIjUuE6-1">
          <mxGeometry y="52" width="160" height="8" as="geometry" />
        </mxCell>
        <mxCell id="Vxgs7BSpl1iZjyIjUuE6-5" value="Materia" style="swimlane;fontStyle=1;align=center;verticalAlign=top;childLayout=stackLayout;horizontal=1;startSize=26;horizontalStack=0;resizeParent=1;resizeParentMax=0;resizeLast=0;collapsible=1;marginBottom=0;" vertex="1" parent="1">
          <mxGeometry x="230" y="30" width="160" height="78" as="geometry" />
        </mxCell>
        <mxCell id="Vxgs7BSpl1iZjyIjUuE6-6" value="Nombre : String&#xa;&#xa;" style="text;strokeColor=none;fillColor=none;align=left;verticalAlign=top;spacingLeft=4;spacingRight=4;overflow=hidden;rotatable=0;points=[[0,0.5],[1,0.5]];portConstraint=eastwest;" vertex="1" parent="Vxgs7BSpl1iZjyIjUuE6-5">
          <mxGeometry y="26" width="160" height="44" as="geometry" />
        </mxCell>
        <mxCell id="Vxgs7BSpl1iZjyIjUuE6-7" value="" style="line;strokeWidth=1;fillColor=none;align=left;verticalAlign=middle;spacingTop=-1;spacingLeft=3;spacingRight=3;rotatable=0;labelPosition=right;points=[];portConstraint=eastwest;" vertex="1" parent="Vxgs7BSpl1iZjyIjUuE6-5">
          <mxGeometry y="70" width="160" height="8" as="geometry" />
        </mxCell>
        <mxCell id="Vxgs7BSpl1iZjyIjUuE6-10" value="" style="line;strokeWidth=1;fillColor=none;align=left;verticalAlign=middle;spacingTop=-1;spacingLeft=3;spacingRight=3;rotatable=0;labelPosition=right;points=[];portConstraint=eastwest;" vertex="1" parent="1">
          <mxGeometry x="390" y="79" width="160" height="8" as="geometry" />
        </mxCell>
        <mxCell id="Vxgs7BSpl1iZjyIjUuE6-12" value="*" style="text;html=1;align=center;verticalAlign=middle;resizable=0;points=[];autosize=1;strokeColor=none;fillColor=none;" vertex="1" parent="1">
          <mxGeometry x="520" y="60" width="20" height="20" as="geometry" />
        </mxCell>
        <mxCell id="Vxgs7BSpl1iZjyIjUuE6-13" value="*" style="text;html=1;align=center;verticalAlign=middle;resizable=0;points=[];autosize=1;strokeColor=none;fillColor=none;" vertex="1" parent="1">
          <mxGeometry x="400" y="60" width="20" height="20" as="geometry" />
        </mxCell>
        <mxCell id="Vxgs7BSpl1iZjyIjUuE6-14" value="Horario" style="swimlane;fontStyle=1;align=center;verticalAlign=top;childLayout=stackLayout;horizontal=1;startSize=26;horizontalStack=0;resizeParent=1;resizeParentMax=0;resizeLast=0;collapsible=1;marginBottom=0;" vertex="1" parent="1">
          <mxGeometry x="-10" y="30" width="160" height="78" as="geometry" />
        </mxCell>
        <mxCell id="Vxgs7BSpl1iZjyIjUuE6-15" value="Entrada : Int&#xa;Salida : Int" style="text;strokeColor=none;fillColor=none;align=left;verticalAlign=top;spacingLeft=4;spacingRight=4;overflow=hidden;rotatable=0;points=[[0,0.5],[1,0.5]];portConstraint=eastwest;" vertex="1" parent="Vxgs7BSpl1iZjyIjUuE6-14">
          <mxGeometry y="26" width="160" height="44" as="geometry" />
        </mxCell>
        <mxCell id="Vxgs7BSpl1iZjyIjUuE6-16" value="" style="line;strokeWidth=1;fillColor=none;align=left;verticalAlign=middle;spacingTop=-1;spacingLeft=3;spacingRight=3;rotatable=0;labelPosition=right;points=[];portConstraint=eastwest;" vertex="1" parent="Vxgs7BSpl1iZjyIjUuE6-14">
          <mxGeometry y="70" width="160" height="8" as="geometry" />
        </mxCell>
        <mxCell id="Vxgs7BSpl1iZjyIjUuE6-18" value="" style="line;strokeWidth=1;fillColor=none;align=left;verticalAlign=middle;spacingTop=-1;spacingLeft=3;spacingRight=3;rotatable=0;labelPosition=right;points=[];portConstraint=eastwest;" vertex="1" parent="1">
          <mxGeometry x="150" y="72" width="80" height="8" as="geometry" />
        </mxCell>
        <mxCell id="Vxgs7BSpl1iZjyIjUuE6-19" value="*" style="text;html=1;align=center;verticalAlign=middle;resizable=0;points=[];autosize=1;strokeColor=none;fillColor=none;" vertex="1" parent="1">
          <mxGeometry x="150" y="59" width="20" height="20" as="geometry" />
        </mxCell>
        <mxCell id="Vxgs7BSpl1iZjyIjUuE6-20" value="1" style="text;html=1;align=center;verticalAlign=middle;resizable=0;points=[];autosize=1;strokeColor=none;fillColor=none;" vertex="1" parent="1">
          <mxGeometry x="210" y="59" width="20" height="20" as="geometry" />
        </mxCell>
        <mxCell id="Vxgs7BSpl1iZjyIjUuE6-27" style="edgeStyle=orthogonalEdgeStyle;rounded=0;orthogonalLoop=1;jettySize=auto;html=1;exitX=0.75;exitY=0;exitDx=0;exitDy=0;entryX=0.5;entryY=0;entryDx=0;entryDy=0;" edge="1" parent="1" source="Vxgs7BSpl1iZjyIjUuE6-5" target="Vxgs7BSpl1iZjyIjUuE6-5">
          <mxGeometry relative="1" as="geometry">
            <Array as="points">
              <mxPoint x="350" y="-40" />
              <mxPoint x="310" y="-40" />
            </Array>
          </mxGeometry>
        </mxCell>
        <mxCell id="Vxgs7BSpl1iZjyIjUuE6-28" value="0..*" style="text;html=1;align=center;verticalAlign=middle;resizable=0;points=[];autosize=1;strokeColor=none;fillColor=none;" vertex="1" parent="1">
          <mxGeometry x="350" y="10" width="30" height="20" as="geometry" />
        </mxCell>
        <mxCell id="Vxgs7BSpl1iZjyIjUuE6-29" value="0..*" style="text;html=1;align=center;verticalAlign=middle;resizable=0;points=[];autosize=1;strokeColor=none;fillColor=none;" vertex="1" parent="1">
          <mxGeometry x="280" y="-20" width="30" height="20" as="geometry" />
        </mxCell>
        <mxCell id="Vxgs7BSpl1iZjyIjUuE6-31" value="materia-correlativa" style="text;html=1;align=center;verticalAlign=middle;resizable=0;points=[];autosize=1;strokeColor=none;fillColor=none;" vertex="1" parent="1">
          <mxGeometry x="205" width="110" height="20" as="geometry" />
        </mxCell>
      </root>
    </mxGraphModel>
  </diagram>
</mxfile>
